<svg xmlns="http://www.w3.org/2000/svg" width="1016.321" height="187.612" viewBox="0 0 1016.321 187.612">
  <g id="组_38834" data-name="组 38834" transform="translate(0.14 -1.982)">
    <rect id="矩形_12770" data-name="矩形 12770" width="95.676" height="18.721" transform="translate(791.755 166.929)" fill="#1f69ff"/>
    <g id="组_38833" data-name="组 38833" transform="translate(-0.14 0.982)">
      <g id="组_38832" data-name="组 38832" transform="translate(0 1.018)">
        <path id="路径_4933" data-name="路径 4933" d="M3985.8,135.048A36.507,36.507,0,0,0,4008,100.454q0-27.935-33.837-37.554L3955.3,57.354q-10.906-3.146-15.994-7.862a15.154,15.154,0,0,1-5.084-11.564q0-8.509,7.3-14.152t18.4-5.645a32.546,32.546,0,0,1,17.84,4.994,31,31,0,0,1,10.895,11.637q.246.45.917,1.655,1.151-.716,1.591-.983l13.406-8.134q.363-.221,1.323-.893-.4-.977-.623-1.426a41.742,41.742,0,0,0-17.054-17.95Q3976.007,0,3959.92,0a57.065,57.065,0,0,0-24.129,4.9,39.033,39.033,0,0,0-16.641,13.968,36.645,36.645,0,0,0-6.009,20.72q0,27.38,33.1,37.184l20.339,5.921q10.356,3.145,15.35,7.862a15.3,15.3,0,0,1,4.989,11.562,16.889,16.889,0,0,1-7.3,14.153q-7.312,5.457-18.77,5.457a42.886,42.886,0,0,1-25.153-8.13,23.259,23.259,0,0,1-7.406-8.4q-.368-.723-1.528-2.9-1.956,1.018-2.827,1.5l-13.012,7.14q-.357.2-1.422.847.415,1.008.651,1.494,5.857,12.046,19.171,19.1,14.147,7.492,32.266,7.491a57.737,57.737,0,0,0,24.218-4.81Z" transform="translate(-2991.689 0.008)" fill="#fff" fill-rule="evenodd"/>
        <path id="路径_4934" data-name="路径 4934" d="M2887.42,164.647l-3.7.028-18.1-.005h-.558l-.629,1.623-25.4,70.743-25.347-70.607c-.071-.2-.2-.587-.371-1.153l-.177-.576-1.754-.021h-21.938l1.21,2.946q.179.445.272.683L2828,264.778l-18.016,42.335c-.193.452-.569,1.291-1.128,2.512l-1.513,3.217,4.195.039h18.281L2886.705,166.5l.706-1.859Z" transform="translate(-2132.632 -125.287)" fill="#fff"/>
        <path id="路径_4935" data-name="路径 4935" d="M2419.672,164.647a38.474,38.474,0,0,0-19.167,4.726l-.7.4a31.532,31.532,0,0,0-10.541,10.008l-.287.452-1.337-13h-17.785v98.335h21.421V209.283c0-7.441,2.146-13.4,6.432-17.924s9.794-6.77,16.6-6.77c6.307,0,11.29,2.064,15.014,6.2,3.737,4.153,5.613,9.75,5.613,16.833v57.947h21.237V203.552a43.4,43.4,0,0,0-4.621-20.346,33.444,33.444,0,0,0-12.884-13.733,36.88,36.88,0,0,0-19-4.827Z" transform="translate(-1806.824 -126.303)" fill="#fff"/>
        <path id="路径_4936" data-name="路径 4936" d="M1957.906,164.386a47.716,47.716,0,0,1,24.7,6.342,44.043,44.043,0,0,1,16.833,17.929,56.023,56.023,0,0,1,6.048,26.38q0,14.817-6.048,26.293a44.181,44.181,0,0,1-16.833,17.835,47.708,47.708,0,0,1-24.7,6.342,48.189,48.189,0,0,1-24.786-6.34,44,44,0,0,1-16.921-17.841q-6.054-11.464-6.048-26.293,0-15,6.048-26.474a44,44,0,0,1,16.921-17.841,48.2,48.2,0,0,1,24.786-6.34Zm0,18.941c-7.953,0-14.32,2.879-19.162,8.654q-7.3,8.708-7.309,23.056,0,14.185,7.309,22.875c4.839,5.776,11.208,8.654,19.162,8.654a23.55,23.55,0,0,0,18.984-8.654q7.3-8.713,7.308-22.875,0-14.363-7.308-23.056A23.55,23.55,0,0,0,1957.906,183.327Z" transform="translate(-1456.188 -125.37)" fill="#fff"/>
        <path id="路径_4937" data-name="路径 4937" d="M1352.626,164.656a33.913,33.913,0,0,1,17.5,4.921,32.865,32.865,0,0,1,12.322,13.834,44.819,44.819,0,0,1,4.328,19.167l.008.976v62.016H1365.55v-59.8c0-6.467-1.693-11.6-5.065-15.45-3.352-3.82-7.905-5.73-13.708-5.73-6.314,0-11.39,2.067-15.3,6.213-3.777,4.006-5.736,9.232-5.871,15.724l-.008.726v58.315h-21.237v-59.8c0-6.465-1.722-11.6-5.153-15.445-3.418-3.824-8-5.735-13.809-5.735a19.813,19.813,0,0,0-15.119,6.213c-3.777,4.006-5.736,9.232-5.871,15.724l-.008.726v58.315h-21.423V167.235H1261l1.127,12.724.255-.4a31.148,31.148,0,0,1,9.979-9.752l.693-.418a34.644,34.644,0,0,1,17.888-4.737,33.033,33.033,0,0,1,17.908,4.932,34.3,34.3,0,0,1,11.592,12.144l.073.13a31.752,31.752,0,0,1,11.592-11.894l.682-.4a37.449,37.449,0,0,1,18.126-4.906l.862-.009.862.009Z" transform="translate(-944.45 -126.303)" fill="#fff"/>
        <path id="路径_4938" data-name="路径 4938" d="M994.77,164.49a36.085,36.085,0,0,0-17.985,4.315l-.662.383a28.572,28.572,0,0,0-9.561,9.2l-.182.291-1.109-11.552H945.506v98.321h21.666V208.518c0-7.257,2.281-12.991,6.843-17.252s10.791-6.417,18.7-6.417a57.988,57.988,0,0,1,7.4.411l.624.1q.4.078,1,.2l1.292.278.047-2.5q.006-.466.006-.717V165.478l-.613-.167q-1.059-.29-1.581-.38a36.806,36.806,0,0,0-6.121-.448Z" transform="translate(-717.267 -125.809)" fill="#fff"/>
        <path id="路径_4939" data-name="路径 4939" d="M577.15,159.674q18.42,0,29.342,9.46c7.127,6.189,10.773,14.85,10.938,25.918l.006.794v65.908h-18l-1.335-11.5-.311.445a28.776,28.776,0,0,1-9.112,8.136l-.746.416-.678.357a40.139,40.139,0,0,1-18.518,4.019q-15.8,0-25.778-8.329c-6.673-5.581-10.021-12.891-10.021-21.861a28.553,28.553,0,0,1,5.3-17.035,34.58,34.58,0,0,1,14.648-11.5A52.293,52.293,0,0,1,573.3,200.82l1.05-.008h21.8v-2.35c0-6.06-1.547-10.714-4.625-14.011l-.348-.36-.375-.362q-5.362-5-14.768-5.015a28.791,28.791,0,0,0-13.548,3.179,26.659,26.659,0,0,0-9.053,7.727l-.144.2c-.087.129-.2.3-.328.5l-.457.734-.471.769-1.871-1.378-.438-.33-11.165-8.487q-.271-.206-.814-.651l-1.008-.834.636-1.153c.239-.42.433-.738.587-.96A40.461,40.461,0,0,1,553.4,164.891a52.379,52.379,0,0,1,23.748-5.23Zm18,57.386H574.905q-9.28,0-14.925,4.318a12.945,12.945,0,0,0-5.564,10.748,12.3,12.3,0,0,0,5.1,10.372q5.189,3.937,13.523,3.944c7.143,0,12.755-2.13,16.89-6.386,4-4.119,6.072-9.441,6.21-16.012l.007-.706v-5.283a1,1,0,0,0-.995-.994Z" transform="translate(-406.67 -123.001)" fill="#fff"/>
        <path id="路径_4940" data-name="路径 4940" d="M22.6,3.089H0V141.636H22.6V80.484H89.949v61.152h22.6V3.089h-22.6v56.66H22.6V3.089Z" transform="translate(0 -1.424)" fill="#fff"/>
      </g>
      <path id="路径_4941" data-name="路径 4941" d="M3329.845.056a69.82,69.82,0,1,0,69.82,69.82,69.82,69.82,0,0,0-69.82-69.82Zm0,120.157a50.337,50.337,0,1,1,50.336-50.337,50.337,50.337,0,0,1-50.336,50.337Z" transform="translate(-2490.601 0.944)" fill="#fff"/>
    </g>
  </g>
</svg>
